<svg width="110" height="34" viewBox="0 0 110 34" fill="none" xmlns="http://www.w3.org/2000/svg">
<path d="M15.3073 8.12033C14.1285 6.6145 11.8484 4.52348 8.26303 4.52348C3.65627 4.52348 0 8.55208 0 12.5355C0 16.5201 2.05318 19.6399 6.16084 23.2296C10.2543 26.8086 11.6601 27.169 15.2893 29.0555C18.9558 27.169 20.3629 26.8086 24.4551 23.2296C28.5627 19.6399 30.6146 16.5201 30.6146 12.5355C30.6146 8.55208 26.9596 4.52348 22.3516 4.52348C18.7676 4.52348 16.4861 6.6145 15.3073 8.12033Z" fill="#FFC220"/>
<path d="M43.8543 22.1005C43.8543 24.216 43.3498 25.0891 41.5338 25.0891C39.8522 25.0891 39.2132 24.0817 39.2132 22.1341V20.9589H34.3032V22.2684C34.3032 27.2045 37.0273 29.4879 41.5674 29.4879C46.6456 29.4879 49.3024 26.8016 49.3024 22.4028V5.44539H43.8543V22.1005Z" fill="#434043"/>
<path d="M63.6608 22.067C63.6608 23.8467 62.3492 25.5256 59.9278 25.5256C58.6835 25.5256 58.0445 24.9548 58.0445 23.8802C58.0445 22.6714 58.7508 21.9998 61.1722 21.4625C62.6856 21.1603 63.3245 20.9924 63.6945 20.5895L63.6608 22.067ZM68.7391 28.682V17.8024C68.7391 13.4372 66.8221 10.9859 61.3067 10.9859C55.724 10.9859 53.7398 13.5043 53.6389 17.0637H58.2463C58.4145 15.7541 59.1207 14.8811 61.0713 14.8811C62.5174 14.8811 63.6272 15.4183 63.6272 16.3921C63.6272 17.5002 63.0891 17.836 61.1049 18.1382C56.4975 18.877 53.0672 19.6829 53.0672 24.1824C53.0672 27.2381 54.8496 29.1521 58.7844 29.1521C61.3403 29.1521 63.0891 28.3462 63.9635 27.2045C63.9971 27.7418 64.1317 28.2119 64.2998 28.682H68.7391Z" fill="#434043"/>
<path d="M88.8662 28.682V16.4929C88.8662 13.135 86.4111 10.9859 83.0481 10.9859C80.5594 10.9859 78.8442 11.8925 77.8353 13.6387V11.456H73.0262V28.682H78.1044V18.2725C78.1044 16.1907 79.1133 15.1497 81.0975 15.1497C82.9472 15.1497 83.7543 15.7541 83.7543 18.0039V28.682H88.8662Z" fill="#434043"/>
<path d="M97.2967 18.3061C97.4648 16.0899 98.6419 15.0154 100.458 15.0154C102.24 15.0154 103.451 16.0563 103.586 18.3061H97.2967ZM108.697 21.3618V20.6231C108.697 14.1423 105.872 10.9859 100.525 10.9859C95.1779 10.9859 92.0839 14.4445 92.0839 19.75C92.0839 26.0293 95.0098 29.1521 100.828 29.1521C104.628 29.1521 107.386 27.1374 108.462 23.6116H103.249C103.014 24.5518 101.837 25.1227 100.592 25.1227C98.6083 25.1227 97.3303 23.6116 97.1958 21.3618H108.697Z" fill="#434043"/>
</svg>
