<svg width="110" height="34" viewBox="0 0 110 34" fill="none" xmlns="http://www.w3.org/2000/svg"><path d="M15.307 8.12c-1.178-1.505-3.459-3.597-7.044-3.597C3.656 4.523 0 8.553 0 12.535 0 16.52 2.053 19.64 6.16 23.23c4.094 3.579 5.5 3.939 9.13 5.825 3.666-1.886 5.073-2.246 9.165-5.825 4.108-3.59 6.16-6.71 6.16-10.694 0-3.984-3.655-8.013-8.263-8.013-3.584 0-5.866 2.091-7.045 3.597z" fill="#FFC220"/><path d="M43.854 22.1c0 2.116-.504 2.99-2.32 2.99-1.682 0-2.32-1.008-2.32-2.956V20.96h-4.91v1.31c0 4.936 2.723 7.219 7.263 7.219 5.079 0 7.735-2.686 7.735-7.085V5.445h-5.448V22.1zM63.66 22.067c0 1.78-1.31 3.459-3.732 3.459-1.244 0-1.883-.571-1.883-1.646 0-1.209.706-1.88 3.127-2.418 1.514-.302 2.153-.47 2.523-.872l-.034 1.477zm5.08 6.615v-10.88c0-4.365-1.918-6.816-7.433-6.816-5.583 0-7.567 2.518-7.668 6.078h4.607c.168-1.31.875-2.183 2.825-2.183 1.446 0 2.556.537 2.556 1.511 0 1.108-.538 1.444-2.522 1.746-4.607.739-8.038 1.545-8.038 6.044 0 3.056 1.783 4.97 5.717 4.97 2.556 0 4.305-.806 5.18-1.948.033.538.168 1.008.336 1.478h4.44zM88.866 28.682v-12.19c0-3.357-2.455-5.506-5.818-5.506-2.489 0-4.204.906-5.213 2.653v-2.183h-4.809v17.226h5.078v-10.41c0-2.081 1.01-3.122 2.993-3.122 1.85 0 2.657.604 2.657 2.854v10.678h5.112zM97.297 18.306c.168-2.216 1.345-3.29 3.161-3.29 1.782 0 2.993 1.04 3.128 3.29h-6.29zm11.4 3.056v-.739c0-6.48-2.825-9.637-8.172-9.637s-8.441 3.458-8.441 8.764c0 6.28 2.926 9.402 8.744 9.402 3.8 0 6.558-2.015 7.634-5.54h-5.213c-.235.94-1.412 1.51-2.657 1.51-1.984 0-3.262-1.51-3.396-3.76h11.501z" fill="#434043"/></svg>